<?xml version="1.0" encoding="UTF-8"?>
<svg version="1.1" xmlns="http://www.w3.org/2000/svg" width="1080" height="1080">
<path d="M0 0 C356.4 0 712.8 0 1080 0 C1080 356.4 1080 712.8 1080 1080 C723.6 1080 367.2 1080 0 1080 C0 723.6 0 367.2 0 0 Z " fill="#FEFEFE" transform="translate(0,0)"/>
<path d="M0 0 C4.11189212 3.44644098 6.5123134 7.91054584 8 13 C8 17.95 8 22.9 8 28 C-4.21 28 -16.42 28 -29 28 C-26.80150693 36.26752844 -26.80150693 36.26752844 -24 39.5625 C-18.7137146 42.09551175 -12.77875131 41.89611782 -7.23828125 40.109375 C-4.58601295 38.7948127 -4.001663 37.73180818 -3 35 C0.59391114 36.33488128 3.75490696 37.96022723 7 40 C6.41661146 43.93787261 4.75728395 46.17201647 2 49 C-6.52612916 54.25223562 -14.95514807 55.12278895 -24.75 53.25 C-31.79093566 51.45573696 -37.15930563 47.10659075 -41 41 C-44.91786407 31.5648442 -45.46766665 21.1165638 -42.1640625 11.421875 C-38.94144606 4.71710253 -33.62945948 -0.78060413 -26.61328125 -3.41015625 C-17.54071243 -5.45792589 -8.03035223 -4.93118587 0 0 Z " fill="#060606" transform="translate(476,527)"/>
<path d="M0 0 C3.57425608 2.53091159 5.42765876 5.2823392 6.96044922 9.38818359 C7.70408892 15.05640353 7.75292636 20.67863522 7.77294922 26.38818359 C7.7961225 27.94160367 7.82149368 29.4949926 7.84912109 31.04833984 C7.91160894 34.82840406 7.94423057 38.60764927 7.96044922 42.38818359 C10.93044922 42.88318359 10.93044922 42.88318359 13.96044922 43.38818359 C13.96044922 46.68818359 13.96044922 49.98818359 13.96044922 53.38818359 C10.02540712 55.35570464 5.24989701 54.85240955 0.96044922 54.38818359 C-2.04152542 52.58699881 -3.49121444 51.48485627 -5.03955078 48.38818359 C-5.69955078 48.38818359 -6.35955078 48.38818359 -7.03955078 48.38818359 C-7.82330078 49.17193359 -8.60705078 49.95568359 -9.41455078 50.76318359 C-13.38883739 54.7374702 -16.18336411 55.7022313 -21.78955078 55.82568359 C-27.74757175 55.71656233 -31.67729698 54.48804619 -36.03955078 50.38818359 C-39.57842146 45.85400554 -39.67733241 40.88077442 -39.50439453 35.29833984 C-38.89301454 31.47079283 -37.76445031 29.44449736 -34.98876953 26.77880859 C-28.42146575 22.09351772 -20.48822351 20.63973126 -12.72705078 19.00146484 C-10.08714067 18.5107346 -10.08714067 18.5107346 -8.03955078 17.38818359 C-7.78933508 14.4718423 -7.78933508 14.4718423 -8.03955078 11.38818359 C-11.80152869 8.88019832 -14.68828469 8.65080461 -19.03955078 9.38818359 C-23.68229795 11.23566731 -27.88842078 13.6207636 -32.03955078 16.38818359 C-33.04533667 15.10101713 -34.04401876 13.80829701 -35.03955078 12.51318359 C-35.59642578 11.79388672 -36.15330078 11.07458984 -36.72705078 10.33349609 C-38.03955078 8.38818359 -38.03955078 8.38818359 -38.03955078 6.38818359 C-36.06298828 4.73193359 -36.06298828 4.73193359 -33.41455078 2.88818359 C-32.55603516 2.27974609 -31.69751953 1.67130859 -30.81298828 1.04443359 C-22.17313175 -4.1151427 -8.927335 -5.18427488 0 0 Z " fill="#070707" transform="translate(623.03955078125,525.61181640625)"/>
<path d="M0 0 C4.68428658 2.11321199 7.12904752 4.70823434 9.578125 9.3125 C10.51324934 12.11787303 10.69995407 13.79415364 10.69165039 16.69213867 C10.69157486 17.57282516 10.69149933 18.45351166 10.69142151 19.36088562 C10.68626022 20.30784805 10.68109894 21.25481049 10.67578125 22.23046875 C10.6743663 23.20284988 10.67295135 24.17523102 10.67149353 25.17707825 C10.66589317 28.28475004 10.65334062 31.39234996 10.640625 34.5 C10.63561005 36.60611875 10.63104713 38.71223863 10.62695312 40.81835938 C10.61592362 45.98310064 10.59865875 51.14778813 10.578125 56.3125 C5.958125 56.3125 1.338125 56.3125 -3.421875 56.3125 C-3.4312207 55.12172852 -3.44056641 53.93095703 -3.45019531 52.70410156 C-3.49008887 48.28314908 -3.55584573 43.86289297 -3.62939453 39.44238281 C-3.65760786 37.52971344 -3.67882061 35.6169274 -3.69287109 33.70410156 C-3.71429581 30.95316827 -3.7609424 28.20363825 -3.8125 25.453125 C-3.81372864 24.59881897 -3.81495728 23.74451294 -3.81622314 22.86431885 C-3.92592057 17.96395021 -3.92592057 17.96395021 -6.32128906 13.77001953 C-8.75799692 12.07927733 -9.98374546 11.82681704 -12.921875 11.9375 C-13.6746875 11.95039062 -14.4275 11.96328125 -15.203125 11.9765625 C-17.79083376 12.36836347 -19.27539077 12.7906075 -21.421875 14.3125 C-24.47236089 19.22443451 -24.88627533 23.17151833 -24.93359375 28.7734375 C-24.95154495 29.56400543 -24.96949615 30.35457336 -24.98799133 31.1690979 C-25.04184206 33.67517891 -25.07590781 36.18107227 -25.109375 38.6875 C-25.14257048 40.39455722 -25.17706219 42.10158976 -25.21289062 43.80859375 C-25.29755352 47.97642653 -25.36448407 52.1442061 -25.421875 56.3125 C-30.041875 56.3125 -34.661875 56.3125 -39.421875 56.3125 C-39.421875 37.8325 -39.421875 19.3525 -39.421875 0.3125 C-35.131875 0.3125 -30.841875 0.3125 -26.421875 0.3125 C-26.421875 2.9525 -26.421875 5.5925 -26.421875 8.3125 C-25.89078125 7.83039062 -25.3596875 7.34828125 -24.8125 6.8515625 C-24.10609375 6.21992187 -23.3996875 5.58828125 -22.671875 4.9375 C-21.97578125 4.31101562 -21.2796875 3.68453125 -20.5625 3.0390625 C-14.5789295 -1.78710202 -7.32764456 -2.08010555 0 0 Z " fill="#020202" transform="translate(686.421875,523.6875)"/>
<path d="M0 0 C1.85546875 1.484375 1.85546875 1.484375 3.85546875 5.484375 C1.54546875 7.794375 -0.76453125 10.104375 -3.14453125 12.484375 C-4.46453125 11.824375 -5.78453125 11.164375 -7.14453125 10.484375 C-12.51147142 8.18425778 -17.41501851 8.28055834 -23.14453125 8.484375 C-23.14453125 10.794375 -23.14453125 13.104375 -23.14453125 15.484375 C-21.90703125 15.896875 -20.66953125 16.309375 -19.39453125 16.734375 C-18.57855469 17.01023437 -17.76257813 17.28609375 -16.921875 17.5703125 C-14.98552458 18.20759239 -13.03910583 18.81473202 -11.0859375 19.3984375 C1.26767978 23.19243232 1.26767978 23.19243232 4.9765625 29.34375 C6.8739272 33.96488713 6.75680159 39.12642391 4.98046875 43.7734375 C1.87846949 49.2223441 -1.92923775 52.13109205 -7.9453125 54.0625 C-16.98799534 55.79715319 -26.13500339 55.15408086 -34.14453125 50.484375 C-36.37770739 48.91122647 -37.50629298 47.74401399 -39.14453125 45.484375 C-38.92142375 42.82833334 -38.36536899 41.71527489 -36.515625 39.78125 C-35.87753906 39.27078125 -35.23945313 38.7603125 -34.58203125 38.234375 C-33.62103516 37.45320312 -33.62103516 37.45320312 -32.640625 36.65625 C-32.14691406 36.26953125 -31.65320313 35.8828125 -31.14453125 35.484375 C-30.33048828 36.11666016 -30.33048828 36.11666016 -29.5 36.76171875 C-28.78457031 37.30957031 -28.06914062 37.85742188 -27.33203125 38.421875 C-26.27048828 39.23978516 -26.27048828 39.23978516 -25.1875 40.07421875 C-21.2627562 42.78326753 -17.79328355 42.72904617 -13.14453125 42.484375 C-10.79083318 41.60372573 -10.79083318 41.60372573 -9.14453125 40.484375 C-9.14453125 38.504375 -9.14453125 36.524375 -9.14453125 34.484375 C-13.46834269 32.80289277 -17.73752877 31.29258626 -22.20703125 30.046875 C-27.79714117 28.37844219 -32.44210907 26.73596563 -36.08203125 21.921875 C-37.77177244 16.45506527 -38.4132526 10.81859923 -36.3359375 5.359375 C-28.7981503 -6.74281622 -11.20563927 -6.08145247 0 0 Z " fill="#060606" transform="translate(418.14453125,526.515625)"/>
<path d="M0 0 C4.62 0 9.24 0 14 0 C17.35477087 7.15632197 20.02375419 14.48588262 22.57421875 21.95922852 C23.25760129 23.95975191 23.94869539 25.95749684 24.640625 27.95507812 C25.07857842 29.22901088 25.51609494 30.50309394 25.953125 31.77734375 C26.34661133 32.92452881 26.74009766 34.07171387 27.14550781 35.25366211 C28 38 28 38 28 40 C28.66 40 29.32 40 30 40 C30.16326782 38.51197876 30.16326782 38.51197876 30.32983398 36.99389648 C30.93162968 32.808111 32.24156557 29.04440077 33.72265625 25.09765625 C33.98759384 24.3750914 34.25253143 23.65252655 34.52549744 22.9080658 C35.36472829 20.62377732 36.21343276 18.34314811 37.0625 16.0625 C37.63669998 14.50479021 38.21027395 12.94684951 38.78320312 11.38867188 C40.18157926 7.58974014 41.5884568 3.79405798 43 0 C47.62 0 52.24 0 57 0 C56.30157726 4.19053645 55.69813427 7.21879447 54.25 11.05566406 C53.89292969 12.00975159 53.53585937 12.96383911 53.16796875 13.94683838 C52.78253906 14.95953796 52.39710938 15.97223755 52 17.015625 C51.60425781 18.06780212 51.20851563 19.11997925 50.80078125 20.20404053 C49.53897672 23.5546515 48.26945902 26.90228269 47 30.25 C46.1453542 32.51804868 45.29118216 34.78627594 44.4375 37.0546875 C42.87772365 41.19146226 41.31778671 45.32816777 39.75 49.46191406 C39.27820313 50.70717865 39.27820313 50.70717865 38.796875 51.9776001 C38 54 38 54 37 56 C31.39 56 25.78 56 20 56 C15.31920005 43.89875543 10.77204355 31.75023825 6.32189941 19.56246948 C5.77343375 18.06103148 5.22387078 16.55999386 4.67321777 15.05935669 C3.89339818 12.93269603 3.11793849 10.80449729 2.34375 8.67578125 C1.89193359 7.43739502 1.44011719 6.19900879 0.97460938 4.9230957 C0 2 0 2 0 0 Z " fill="#050505" transform="translate(522,524)"/>
<path d="M0 0 C4.62 0 9.24 0 14 0 C14.02505615 1.95856934 14.0501123 3.91713867 14.07592773 5.93505859 C14.1597328 12.39717035 14.24800256 18.85920896 14.33933926 25.32121849 C14.39456684 29.24015849 14.44798657 33.15910595 14.49731445 37.078125 C14.54496046 40.8582888 14.59730333 44.63836074 14.65294075 48.41841507 C14.67336324 49.86252183 14.69207651 51.30665377 14.70907402 52.7508049 C14.73312006 54.76931251 14.76373877 56.78773862 14.79467773 58.80615234 C14.81022202 59.95642914 14.8257663 61.10670593 14.84178162 62.2918396 C14.81953729 64.9676465 14.81953729 64.9676465 16 67 C19.02934491 67.65772428 19.02934491 67.65772428 22 68 C22.33 71.63 22.66 75.26 23 79 C19.07486948 80.96256526 14.28912771 80.34188699 10 80 C5.79738325 78.30106982 3.58054867 75.6864981 1 72 C-0.14346098 68.56961706 -0.120116 65.9436825 -0.11352539 62.32543945 C-0.11367142 61.652005 -0.11381744 60.97857056 -0.1139679 60.284729 C-0.11327175 58.06088021 -0.10549332 55.83711539 -0.09765625 53.61328125 C-0.09579101 52.07057236 -0.09436761 50.52786289 -0.09336853 48.9851532 C-0.08955169 44.92616132 -0.07972851 40.86720527 -0.06866455 36.80822754 C-0.05843252 32.66577641 -0.05386707 28.5233195 -0.04882812 24.38085938 C-0.0381055 16.25388799 -0.02051543 8.12695258 0 0 Z " fill="#030303" transform="translate(496,501)"/>
<path d="M0 0 C0.85745513 10.70866183 0.85745513 10.70866183 -1.875 14.6875 C-5.71973078 17.53260078 -8.03165213 17.6102207 -12.6953125 17.50390625 C-15.41848715 16.90850027 -16.36974376 16.23964914 -18 14 C-18.4375 10.5625 -18.4375 10.5625 -18 7 C-15.20704368 3.48607124 -12.7483157 2.30570997 -8.4375 1.25 C-7.48746094 1.00765625 -6.53742187 0.7653125 -5.55859375 0.515625 C-3 0 -3 0 0 0 Z " fill="#F8F8F8" transform="translate(616,553)"/>
<path d="M0 0 C3.58552881 1.63687185 4.79315055 2.68972583 7 6 C7 7.98 7 9.96 7 12 C-0.59 12 -8.18 12 -16 12 C-14.96418824 5.78512943 -14.49754628 4.83936878 -10 1 C-6.80876226 -0.59561887 -3.47254909 -0.3799142 0 0 Z " fill="#F8F8F8" transform="translate(463,534)"/>
<path d="M0 0 C0.66 0.33 1.32 0.66 2 1 C1.195625 1.763125 0.39125 2.52625 -0.4375 3.3125 C-3.16799024 5.79430898 -3.16799024 5.79430898 -4 9 C-6.0625 10.1875 -6.0625 10.1875 -8 11 C-6.52670958 5.99081256 -3.72484762 3.48192278 0 0 Z " fill="#202020" transform="translate(443,527)"/>
</svg>
